<?xml version="1.0" encoding="iso-8859-1"?>
<!-- Generator: Adobe Illustrator 18.1.1, SVG Export Plug-In . SVG Version: 6.00 Build 0)  -->
<svg version="1.1" id="Capa_1" xmlns="http://www.w3.org/2000/svg" xmlns:xlink="http://www.w3.org/1999/xlink" x="0px" y="0px"
	 viewBox="0 0 174.239 174.239" style="enable-background:new 0 0 174.239 174.239;" xml:space="preserve">
<path d="M146.537,1.047c-1.396-1.396-3.681-1.396-5.077,0L89.658,52.849c-1.396,1.396-3.681,1.396-5.077,0L32.78,1.047
	c-1.396-1.396-3.681-1.396-5.077,0L1.047,27.702c-1.396,1.396-1.396,3.681,0,5.077l51.802,51.802c1.396,1.396,1.396,3.681,0,5.077
	L1.047,141.46c-1.396,1.396-1.396,3.681,0,5.077l26.655,26.655c1.396,1.396,3.681,1.396,5.077,0l51.802-51.802
	c1.396-1.396,3.681-1.396,5.077,0l51.801,51.801c1.396,1.396,3.681,1.396,5.077,0l26.655-26.655c1.396-1.396,1.396-3.681,0-5.077
	l-51.801-51.801c-1.396-1.396-1.396-3.681,0-5.077l51.801-51.801c1.396-1.396,1.396-3.681,0-5.077L146.537,1.047z"/>
<g>
</g>
<g>
</g>
<g>
</g>
<g>
</g>
<g>
</g>
<g>
</g>
<g>
</g>
<g>
</g>
<g>
</g>
<g>
</g>
<g>
</g>
<g>
</g>
<g>
</g>
<g>
</g>
<g>
</g>
</svg>
