<svg width="28" height="35" viewBox="0 0 28 35" fill="none" xmlns="http://www.w3.org/2000/svg">
<path fill-rule="evenodd" clip-rule="evenodd" d="M12.6263 17.2166C13.5371 15.9384 13.4354 14.5922 12.8039 12.1706C11.555 7.38136 12.0523 4.75638 16.3579 1.64859L18.4593 0.131744L18.9676 2.67313C19.5078 5.37401 20.3949 7.04451 22.6726 10.2577C22.7631 10.3854 22.7631 10.3854 22.854 10.5136C26.1349 15.1424 27.3333 17.9327 27.3333 23C27.3333 29.1472 21.1189 34.6667 14 34.6667C6.88065 34.6667 0.666639 29.148 0.666639 23C0.666639 22.8851 0.666757 22.8886 0.647287 22.3807C0.496694 18.453 1.22299 15.3789 4.16175 12.0598C4.78266 11.3585 5.48845 10.6845 6.28268 10.0395L8.036 8.61576L8.87941 10.711C9.50261 12.2591 10.2328 13.4761 11.0577 14.3692C11.7563 15.1256 12.2745 16.0768 12.6263 17.2166ZM6.65745 14.2694C4.39517 16.8246 3.85732 19.101 3.97817 22.253C4.00067 22.8398 3.99997 22.8192 3.99997 23C3.99997 27.2132 8.63931 31.3333 14 31.3333C19.3602 31.3333 24 27.2125 24 23C24 18.7637 23.0529 16.5584 20.1345 12.4412C20.0441 12.3136 20.0441 12.3136 19.9532 12.1854C18.1809 9.68519 17.1244 7.94598 16.4255 6.00087C15.2841 7.36863 15.3512 8.72899 16.0294 11.3294C17.2783 16.1186 16.781 18.7436 12.4754 21.8514L10.0204 23.6234L9.83639 20.6013C9.7188 18.6704 9.28175 17.3593 8.60896 16.6308C7.94425 15.9111 7.34409 15.0686 6.80589 14.1047C6.75569 14.1594 6.70621 14.2144 6.65745 14.2694Z" fill="white"/>
</svg>
