<?xml version="1.0" encoding="iso-8859-1"?>
<!-- Generator: Adobe Illustrator 19.0.0, SVG Export Plug-In . SVG Version: 6.00 Build 0)  -->
<svg fill="#E5E5E5" version="1.1" id="Capa_1" xmlns="http://www.w3.org/2000/svg" xmlns:xlink="http://www.w3.org/1999/xlink" x="0px" y="0px"
	 viewBox="0 0 512 512" style="enable-background:new 0 0 512 512;" xml:space="preserve">
<g>
	<g>
		<path d="M240,272V62h-15c-60.1,0-116.602,23.404-159.099,65.901S0,226.9,0,287c0,60.1,23.404,116.602,65.901,159.099
			S164.9,512,225,512c60.1,0,116.602-23.404,159.099-65.901S450,347.1,450,287v-15H240z M225,482c-107.523,0-195-87.477-195-195
			c0-102.477,79.458-186.744,180-194.429V302h209.429C411.744,402.542,327.477,482,225,482z"/>
	</g>
</g>
<g>
	<g>
		<path d="M446.099,65.901C403.602,23.404,347.1,0,287,0h-15v240h240v-15C512,164.9,488.596,108.398,446.099,65.901z M302,210
			V30.571C397.59,37.877,474.123,114.41,481.429,210H302z"/>
	</g>
</g>
<g>
</g>
<g>
</g>
<g>
</g>
<g>
</g>
<g>
</g>
<g>
</g>
<g>
</g>
<g>
</g>
<g>
</g>
<g>
</g>
<g>
</g>
<g>
</g>
<g>
</g>
<g>
</g>
<g>
</g>
</svg>
