<svg width="40" height="40" viewBox="0 0 40 40" fill="none" xmlns="http://www.w3.org/2000/svg">
<path fill-rule="evenodd" clip-rule="evenodd" d="M20.0001 38.3333C9.87486 38.3333 1.66675 30.1252 1.66675 20C1.66675 9.87477 9.87486 1.66666 20.0001 1.66666C30.1253 1.66666 38.3334 9.87477 38.3334 20C38.3334 30.1252 30.1253 38.3333 20.0001 38.3333ZM32.3326 28.5411C34.0144 26.1172 35.0001 23.1737 35.0001 20C35.0001 11.7157 28.2844 4.99999 20.0001 4.99999C11.7158 4.99999 5.00008 11.7157 5.00008 20C5.00008 23.1737 5.98572 26.1172 7.66759 28.5411C9.54333 26.0634 13.9511 25 20.0001 25C26.0491 25 30.4568 26.0634 32.3326 28.5411ZM29.9412 31.2329C29.4534 29.4789 25.949 28.3333 20.0001 28.3333C14.0511 28.3333 10.5468 29.4789 10.0589 31.2329C12.7056 33.5769 16.1866 35 20.0001 35C23.8135 35 27.2946 33.577 29.9412 31.2329ZM20.0001 9.99999C15.9652 9.99999 13.3334 12.9263 13.3334 16.6667C13.3334 22.3789 16.2682 25 20.0001 25C23.6969 25 26.6667 22.466 26.6667 17C26.6667 13.2026 24.0237 9.99999 20.0001 9.99999ZM16.6667 16.6667C16.6667 20.4488 18.0304 21.6667 20.0001 21.6667C21.9629 21.6667 23.3334 20.4973 23.3334 17C23.3334 14.9174 22.0262 13.3333 20.0001 13.3333C17.8896 13.3333 16.6667 14.693 16.6667 16.6667Z" fill="white"/>
</svg>
