<?xml version="1.0" encoding="iso-8859-1"?>
<!-- Generator: Adobe Illustrator 19.0.0, SVG Export Plug-In . SVG Version: 6.00 Build 0)  -->
<svg width="24px" height="24px" fill="#E5E5E5" version="1.1" id="Capa_1" xmlns="http://www.w3.org/2000/svg" xmlns:xlink="http://www.w3.org/1999/xlink" x="0px" y="0px"
	 viewBox="0 0 512 512" style="enable-background:new 0 0 512 512;" xml:space="preserve">
<g>
	<g>
		<g>
			<path d="M79,256c0,97.598,79.402,177,177,177c15.055,0,30.016-1.896,44.468-5.637c10.694-2.768,17.119-13.681,14.351-24.374
				s-13.678-17.12-24.374-14.35C279.265,391.533,267.675,393,256,393c-75.542,0-137-61.458-137-137s61.458-137,137-137
				c15.89,0,31.45,2.69,46.25,7.998c10.394,3.728,21.848-1.678,25.576-12.076c3.729-10.398-1.679-21.849-12.076-25.577
				C296.606,82.48,276.504,79,256,79C158.402,79,79,158.402,79,256z"/>
			<circle cx="140" cy="50" r="20"/>
			<path d="M50.233,321.904C43.442,300.686,40,278.513,40,256c0-52.173,18.851-102.541,53.079-141.825
				c7.256-8.328,6.388-20.961-1.94-28.218c-8.328-7.257-20.962-6.387-28.218,1.94C22.346,134.465,0,194.166,0,256
				c0,26.656,4.083,52.931,12.136,78.096c2.719,8.494,10.579,13.91,19.044,13.91c2.02,0,4.074-0.309,6.101-0.957
				C47.801,343.682,53.6,332.424,50.233,321.904z"/>
			<circle cx="375" cy="154" r="20"/>
			<path d="M437.02,74.98C388.667,26.628,324.38,0,256,0c-14.545,0-29.136,1.232-43.366,3.661
				c-10.888,1.859-18.207,12.192-16.349,23.081c1.859,10.888,12.188,18.205,23.081,16.349C231.379,41.04,243.704,40,256,40
				c119.103,0,216,96.897,216,216c0,50.982-17.548,99.251-49.773,137.942l-27.722-27.722C419.441,334.989,433,296.488,433,256
				c0-11.359-1.086-22.731-3.228-33.799c-2.098-10.844-12.583-17.937-23.436-15.836c-10.844,2.098-17.935,12.591-15.836,23.435
				c1.659,8.57,2.5,17.385,2.5,26.2c0,29.797-9.49,58.202-27.013,81.702l-28.738-28.738C347.469,293.298,353,274.934,353,256
				c0-53.486-43.514-97-97-97c-53.486,0-97,43.514-97,97c0,40.842,25.819,77.542,64.248,91.326c2.231,0.8,4.51,1.18,6.751,1.18
				c8.204,0,15.897-5.087,18.827-13.253c3.729-10.397-1.677-21.849-12.074-25.578C214.172,301.575,199,280.005,199,256
				c0-31.43,25.57-57,57-57s57,25.57,57,57c0,8.217-1.78,16.247-5.121,23.594l-37.736-37.736c-7.811-7.811-20.475-7.811-28.285,0
				c-7.81,7.811-7.811,20.474,0,28.284l165.104,165.104c0.506,0.652,1.042,1.287,1.641,1.886c3.906,3.912,9.029,5.868,14.152,5.868
				c0.041,0,0.082-0.006,0.123-0.006c0.041,0,0.082,0.006,0.123,0.006c5.118,0,10.237-1.953,14.143-5.858
				c0.656-0.656,1.236-1.357,1.782-2.075C486.062,386.942,512,323.477,512,256C512,187.62,485.371,123.333,437.02,74.98z"/>
			<path d="M347.179,451.875C318.544,465.229,287.867,472,256,472c-42.138,0-82.959-12.131-118.054-35.083
				c-9.245-6.046-21.64-3.453-27.685,5.792c-6.046,9.244-3.453,21.639,5.792,27.685C157.673,497.613,206.065,512,256,512
				c37.753,0,74.118-8.033,108.085-23.875c10.011-4.668,14.341-16.568,9.673-26.579C369.09,451.535,357.184,447.208,347.179,451.875
				z"/>
			<circle cx="69" cy="399" r="20"/>
		</g>
	</g>
</g>
<g>
</g>
<g>
</g>
<g>
</g>
<g>
</g>
<g>
</g>
<g>
</g>
<g>
</g>
<g>
</g>
<g>
</g>
<g>
</g>
<g>
</g>
<g>
</g>
<g>
</g>
<g>
</g>
<g>
</g>
</svg>
