<svg width="24" height="24" viewBox="0 0 40 40" fill="none" xmlns="http://www.w3.org/2000/svg">
<path fill-rule="evenodd" clip-rule="evenodd" d="M30.6065 9.39341L32.9635 7.03639C36.2812 10.3541 38.3333 14.9374 38.3333 20C38.3333 30.1252 30.1251 38.3333 19.9999 38.3333C9.8747 38.3333 1.66659 30.1252 1.66659 20C1.66659 10.4366 8.98909 2.58347 18.3333 1.74142V1.66668H19.9999H21.6666L21.6666 18.3333L23.5355 16.4645C24.4403 17.3693 24.9999 18.6193 24.9999 20C24.9999 22.7614 22.7613 25 19.9999 25C17.2385 25 14.9999 22.7614 14.9999 20C14.9999 17.823 16.3913 15.9709 18.3333 15.2845V11.8334C14.5295 12.6055 11.6666 15.9684 11.6666 20C11.6666 24.6024 15.3975 28.3333 19.9999 28.3333C24.6023 28.3333 28.3333 24.6024 28.3333 20C28.3333 17.6988 27.4005 15.6155 25.8925 14.1075L28.2495 11.7504C30.3608 13.8617 31.6666 16.7784 31.6666 20C31.6666 26.4433 26.4432 31.6667 19.9999 31.6667C13.5566 31.6667 8.33325 26.4433 8.33325 20C8.33325 14.1226 12.6794 9.26021 18.3333 8.45149V5.09156C10.8333 5.92064 4.99992 12.2791 4.99992 20C4.99992 28.2843 11.7156 35 19.9999 35C28.2842 35 34.9999 28.2843 34.9999 20C34.9999 15.8579 33.321 12.1079 30.6065 9.39341Z" fill="white"/>
</svg>
