<svg width="225" height="225" viewBox="0 0 225 225" fill="none" xmlns="http://www.w3.org/2000/svg">
<path fill-rule="evenodd" clip-rule="evenodd" d="M112.5 225C174.632 225 225 174.632 225 112.5C225 50.368 174.632 0 112.5 0C50.368 0 0 50.368 0 112.5C0 174.632 50.368 225 112.5 225ZM169.93 97.8915C178.755 97.8915 186 105.048 186 114.06C186 120.687 182.048 126.386 176.516 128.904C176.78 130.494 176.911 132.217 176.911 133.807C176.911 158.855 148.065 179 112.5 179C76.9355 179 48.0887 158.723 48.0887 133.807C48.0887 132.084 48.2204 130.494 48.4839 128.904C42.9516 126.386 39 120.819 39 114.193C39 105.313 46.1129 98.0241 55.0699 98.0241C59.4167 98.0241 63.3683 99.747 66.2661 102.53C77.4624 94.4458 92.8737 89.2771 109.997 88.747L118.164 50.0482C118.296 49.253 118.691 48.5904 119.349 48.1927C119.876 47.7952 120.667 47.6627 121.457 47.7952L148.196 53.494C150.04 49.6506 153.992 47 158.47 47C164.793 47 169.93 52.1687 169.93 58.5302C169.93 64.8916 164.793 70.0602 158.47 70.0602C152.28 70.0602 147.274 65.1566 147.011 59.0602L123.038 53.8916L115.661 88.6144C132.522 89.2771 147.669 94.4458 158.734 102.398C161.632 99.6144 165.583 97.8915 169.93 97.8915Z" fill="black"/>
</svg>
