<svg width="178" height="159" viewBox="0 0 178 159" fill="none" xmlns="http://www.w3.org/2000/svg">
<path fill-rule="evenodd" clip-rule="evenodd" d="M177.068 80.7771C177.068 69.9217 168.342 61.3012 157.711 61.3012C152.475 61.3012 147.715 63.3765 144.225 66.7289C130.897 57.1506 112.651 50.9247 92.342 50.1265L101.227 8.30121L130.104 14.5271C130.421 21.8705 136.45 27.7771 143.908 27.7771C151.523 27.7771 157.711 21.5512 157.711 13.8886C157.711 6.22591 151.523 0 143.908 0C138.513 0 133.753 3.19277 131.532 7.82229L99.3232 0.957841C98.3712 0.798203 97.4193 0.957834 96.7846 1.43675C95.9913 1.91567 95.5153 2.71386 95.3566 3.67169L85.5195 50.2861C64.8933 50.9247 46.3297 57.1506 32.8433 66.8886C29.3527 63.5362 24.5928 61.4608 19.3569 61.4608C8.56782 61.4608 0 70.241 0 80.9367C0 88.9187 4.75991 95.6235 11.4238 98.6566C11.1064 100.572 10.9478 102.488 10.9478 104.563C10.9478 134.575 45.695 159 88.5341 159C131.373 159 166.12 134.735 166.12 104.563C166.12 102.648 165.962 100.572 165.644 98.6566C172.308 95.6235 177.068 88.759 177.068 80.7771Z" fill="white"/>
</svg>
