<svg width="40" height="40" viewBox="0 0 40 40" fill="none" xmlns="http://www.w3.org/2000/svg">
<path fill-rule="evenodd" clip-rule="evenodd" d="M15.0001 6.66666H35.0001C36.841 6.66666 38.3334 8.15904 38.3334 9.99999V31.6667C38.3334 33.5076 36.841 35 35.0001 35H15.0001H11.6667H5.00008C3.15913 35 1.66675 33.5076 1.66675 31.6667V9.99999C1.66675 8.15904 3.15913 6.66666 5.00008 6.66666H11.6667H15.0001ZM11.6667 9.99999H5.00008V15H11.6667V9.99999ZM15.0001 15V9.99999H35.0001V15H15.0001ZM11.6667 18.3333H5.00008V23.3333H11.6667V18.3333ZM15.0001 23.3333V18.3333H35.0001V23.3333H15.0001ZM11.6667 26.6667H5.00008V31.6667H11.6667V26.6667ZM15.0001 31.6667V26.6667H35.0001V31.6667H15.0001Z" fill="white"/>
</svg>
