<svg width="24" height="22" viewBox="0 0 24 22" fill="none" xmlns="http://www.w3.org/2000/svg">
<path fill-rule="evenodd" clip-rule="evenodd" d="M2.70713 0.292908L1.29292 1.70712L5.35774 5.77194C4.97908 6.08575 4.60434 6.42277 4.23373 6.78116C3.40451 7.58306 2.65433 8.43917 1.99393 9.29564C1.59543 9.81246 1.3125 10.219 1.15759 10.4612L0.812988 11L1.15759 11.5388C1.3125 11.781 1.59543 12.1876 1.99393 12.7044C2.65433 13.5609 3.40451 14.417 4.23373 15.2189C6.66434 17.5694 9.27247 19 12 19C13.7209 19 15.3943 18.4305 17.0056 17.4198L21.2929 21.7071L22.7071 20.2929L2.70713 0.292908ZM15.5447 15.9589L14.032 14.4462C13.4365 14.7981 12.7418 15 12 15C9.79088 15 8.00002 13.2092 8.00002 11C8.00002 10.2582 8.20195 9.56356 8.55384 8.96805L6.77974 7.19395C6.39235 7.50636 6.0068 7.84874 5.62406 8.21886C4.86986 8.94822 4.18241 9.73273 3.57777 10.5169C3.44718 10.6862 3.32651 10.8478 3.21619 11C3.32651 11.1522 3.44718 11.3138 3.57777 11.4831C4.18241 12.2673 4.86986 13.0518 5.62406 13.7812C7.71751 15.8056 9.89495 17 12 17C13.1682 17 14.3586 16.6322 15.5447 15.9589ZM10.0678 10.482C10.0236 10.6472 10 10.8209 10 11C10 12.1046 10.8955 13 12 13C12.1792 13 12.3528 12.9765 12.5181 12.9323L10.0678 10.482ZM20.0981 14.891L18.6838 13.4767C19.318 12.8357 19.9009 12.1593 20.4223 11.4831C20.5529 11.3138 20.6735 11.1522 20.7839 11C20.6735 10.8478 20.5529 10.6862 20.4223 10.5169C19.8176 9.73273 19.1302 8.94822 18.376 8.21886C16.2825 6.19439 14.1051 5.00001 12 5.00001C11.4777 5.00001 10.951 5.07354 10.4221 5.21503L8.84017 3.63306C9.87262 3.22139 10.9271 3.00001 12 3.00001C14.7276 3.00001 17.3357 4.43064 19.7663 6.78116C20.5955 7.58306 21.3457 8.43917 22.0061 9.29564C22.4046 9.81246 22.6875 10.219 22.8425 10.4612L23.1871 11L22.8425 11.5388C22.6875 11.781 22.4046 12.1876 22.0061 12.7044C21.4349 13.4451 20.7966 14.1856 20.0981 14.891Z" fill="black"/>
</svg>
