<svg width="64" height="44" viewBox="0 0 64 44" fill="none" xmlns="http://www.w3.org/2000/svg">
<path d="M0 11.8016C0 5.22019 9.75886 -5.21976 31.773 11.8016C10.6667 27.915 0 18.3831 0 11.8016Z" fill="white"/>
<path fill-rule="evenodd" clip-rule="evenodd" d="M63.9999 11.6278C62.1842 19.7979 52.377 27.5586 31.7731 11.6275C31.7986 11.6098 31.8241 11.5921 31.8496 11.5745L0 11.5745C0 15.7768 0.827704 19.9379 2.43585 23.8203C4.044 27.7027 6.40111 31.2304 9.37258 34.2019C12.3441 37.1734 15.8717 39.5305 19.7541 41.1386C23.6365 42.7468 27.7977 43.5745 32 43.5745C36.2023 43.5745 40.3634 42.7468 44.2459 41.1386C48.1283 39.5305 51.6559 37.1734 54.6274 34.2019C57.5989 31.2304 59.956 27.7028 61.5641 23.8203C63.1655 19.9543 63.993 15.812 63.9999 11.6278ZM63.9999 11.6271C64 11.6096 64 11.592 64 11.5745H63.9923C63.9949 11.592 63.9974 11.6096 63.9999 11.6271Z" fill="white"/>
<path d="M31.7729 8.90408C52.3771 24.8353 62.1843 17.0743 63.9999 8.90408C62.8651 0.960743 53.7417 -6.34698 31.7729 8.90408Z" fill="white"/>
</svg>
