<svg width="218" height="46" viewBox="0 0 218 46" fill="none" xmlns="http://www.w3.org/2000/svg">
<path d="M76.2587 28.116L70.5707 10.476H65.4227L59.7707 28.044L55.0907 10.476H49.8347L56.9267 36H62.1107L67.9427 17.82L73.7747 36H78.8867L85.9427 10.476H80.8667L76.2587 28.116ZM91.9311 25.596C92.0391 23.652 93.2271 22.14 95.2431 22.14C97.5471 22.14 98.5191 23.688 98.5191 25.668V36H103.307V24.84C103.307 20.952 101.219 17.82 96.7191 17.82C95.0271 17.82 93.0831 18.396 91.9311 19.764V9.936H87.1431V36H91.9311V25.596ZM111.155 36V18.288H106.367V36H111.155ZM105.791 12.492C105.791 14.076 107.123 15.408 108.743 15.408C110.399 15.408 111.695 14.076 111.695 12.492C111.695 10.836 110.399 9.504 108.743 9.504C107.123 9.504 105.791 10.836 105.791 12.492ZM112.969 31.068C113.185 33.084 115.021 36.54 120.349 36.54C124.993 36.54 127.225 33.588 127.225 30.708C127.225 28.116 125.461 25.992 121.969 25.272L119.449 24.732C118.477 24.552 117.829 24.012 117.829 23.148C117.829 22.14 118.837 21.384 120.097 21.384C122.113 21.384 122.869 22.716 123.013 23.76L127.009 22.86C126.793 20.952 125.101 17.748 120.061 17.748C116.245 17.748 113.437 20.376 113.437 23.544C113.437 26.028 114.985 28.08 118.405 28.836L120.745 29.376C122.113 29.664 122.653 30.312 122.653 31.104C122.653 32.04 121.897 32.868 120.313 32.868C118.225 32.868 117.181 31.572 117.073 30.168L112.969 31.068ZM134.062 42.84V34.272C134.926 35.46 136.726 36.432 139.174 36.432C144.178 36.432 147.526 32.472 147.526 27.108C147.526 21.852 144.538 17.892 139.354 17.892C136.69 17.892 134.71 19.08 133.918 20.448V18.288H129.274V42.84H134.062ZM142.81 27.144C142.81 30.312 140.866 32.148 138.418 32.148C135.97 32.148 133.99 30.276 133.99 27.144C133.99 24.012 135.97 22.176 138.418 22.176C140.866 22.176 142.81 24.012 142.81 27.144ZM153.009 25.128C153.117 23.508 154.485 21.636 156.969 21.636C159.705 21.636 160.857 23.364 160.929 25.128H153.009ZM161.397 29.736C160.821 31.32 159.597 32.436 157.365 32.436C154.989 32.436 153.009 30.744 152.901 28.404H165.573C165.573 28.332 165.645 27.612 165.645 26.928C165.645 21.24 162.369 17.748 156.897 17.748C152.361 17.748 148.185 21.42 148.185 27.072C148.185 33.048 152.469 36.54 157.329 36.54C161.685 36.54 164.493 33.984 165.393 30.924L161.397 29.736ZM178.416 18.216C178.056 18.18 177.696 18.144 177.3 18.144C175.788 18.144 173.34 18.576 172.26 20.916V18.288H167.616V36H172.404V27.9C172.404 24.084 174.528 22.896 176.976 22.896C177.408 22.896 177.876 22.932 178.416 23.04V18.216ZM184.772 36V18.288H179.984V36H184.772ZM179.408 12.492C179.408 14.076 180.74 15.408 182.36 15.408C184.016 15.408 185.312 14.076 185.312 12.492C185.312 10.836 184.016 9.504 182.36 9.504C180.74 9.504 179.408 10.836 179.408 12.492ZM196.306 13.896C197.098 13.896 197.566 14.004 197.818 14.076V10.044C197.422 9.864 196.45 9.684 195.442 9.684C191.518 9.684 188.998 12.276 188.998 16.272V18.288H186.046V22.392H188.998V36H193.822V22.392H197.818V18.288H193.822V16.344C193.822 14.364 195.226 13.896 196.306 13.896ZM206.129 42.984L217.253 18.288H212.141L207.785 28.656L203.069 18.288H197.705L205.229 33.768L201.053 42.984H206.129Z" fill="white"/>
<path d="M0 16.7448C0 12.4257 6.40426 5.5745 20.8511 16.7448C7 27.3192 0 21.0639 0 16.7448Z" fill="white"/>
<path fill-rule="evenodd" clip-rule="evenodd" d="M42 16.6307C40.8084 21.9923 34.3725 27.0853 20.8511 16.6305C20.8678 16.6189 20.8845 16.6073 20.9012 16.5957L0 16.5957C0 19.3535 0.543181 22.0843 1.59853 24.6321C2.65388 27.1799 4.20073 29.495 6.15076 31.445C8.10079 33.395 10.4158 34.9419 12.9636 35.9972C15.5115 37.0526 18.2422 37.5957 21 37.5957C23.7578 37.5957 26.4885 37.0526 29.0364 35.9972C31.5842 34.9419 33.8992 33.395 35.8492 31.445C37.7993 29.495 39.3461 27.1799 40.4015 24.6321C41.4524 22.095 41.9954 19.3766 42 16.6307ZM42 16.6303C42 16.6188 42 16.6073 42 16.5957H41.9949C41.9966 16.6073 41.9983 16.6188 42 16.6303Z" fill="white"/>
<path d="M20.8511 14.8433C34.3726 25.2982 40.8085 20.205 42 14.8433C41.2553 9.63049 35.2681 4.83479 20.8511 14.8433Z" fill="white"/>
</svg>
