<svg width="576" height="815" viewBox="0 0 576 815" fill="none" xmlns="http://www.w3.org/2000/svg">
<path d="M104.607 386.681C104.301 384.923 102.542 383.7 100.784 384.082L91.9914 385.764C90.4622 386.07 89.3154 387.37 89.3154 388.975V415.276L83.1988 416.423C79.6818 417.111 77.1587 420.17 77.1587 423.687C77.1587 425.904 78.1526 427.968 79.8347 429.421C81.2109 430.568 82.8165 431.103 84.575 431.103C85.0338 431.103 85.4925 431.027 85.9512 430.95L90.8445 430.033C93.7499 429.497 95.8907 426.898 95.8907 423.992V391.651L102.007 390.504C103.766 390.198 104.989 388.44 104.607 386.681Z" fill="#333333"/>
<path d="M79.9876 406.178V370.167C79.9876 369.173 79.5289 368.255 78.8408 367.644C78.0762 367.032 77.1587 366.726 76.1648 366.879L46.9582 371.849C45.3526 372.078 44.2057 373.454 44.2057 375.06V402.355L38.0892 403.502C34.5722 404.19 32.0491 407.248 32.0491 410.765C32.0491 412.983 33.043 415.047 34.7251 416.423C36.1013 417.57 37.7069 418.105 39.4654 418.105C39.9241 418.105 40.3829 418.029 40.8416 417.952L45.7349 417.035C48.6402 416.5 50.781 413.9 50.781 410.995V385.152L73.4888 381.1V397.462L67.3722 398.609C63.8552 399.297 61.3321 402.355 61.3321 405.872C61.3321 408.089 62.326 410.154 64.0081 411.53C65.6902 412.906 67.9074 413.518 70.1247 413.136L75.0179 412.218C77.9233 411.683 79.9876 409.16 79.9876 406.178Z" fill="#333333"/>
<path d="M141.812 494.383C140.48 491 140.064 487.327 140.603 483.732C141.143 480.137 142.62 476.748 144.886 473.906L144.216 474.17C139.797 475.918 136.253 479.347 134.359 483.705C132.466 488.063 132.379 492.995 134.116 497.417L136.139 502.547L143.834 499.513L141.812 494.383ZM140.258 497.959L137.693 498.971L136.682 496.406L139.247 495.394L140.258 497.959Z" fill="#333333"/>
<path d="M144.377 493.371L146.4 498.502L148.965 497.49L146.942 492.36C145.467 488.618 145.538 484.444 147.141 480.755C148.744 477.066 151.746 474.165 155.488 472.69C159.229 471.215 163.404 471.286 167.093 472.889C170.781 474.491 173.683 477.494 175.158 481.235L177.181 486.365L179.746 485.354L177.723 480.224C175.979 475.802 172.551 472.254 168.191 470.36C163.832 468.466 158.898 468.381 154.476 470.125C150.054 471.868 146.506 475.297 144.612 479.656C142.718 484.016 142.634 488.95 144.377 493.371Z" fill="#333333"/>
<path d="M146.363 505.926L144.846 502.078L137.151 505.112L138.875 509.486C139.99 508.643 141.215 507.956 142.515 507.443L146.363 505.926Z" fill="#333333"/>
<path d="M142.171 525.362C140.351 526.079 139.569 530.039 141.357 534.574C143.145 539.109 146.419 541.47 148.239 540.752C150.059 540.034 150.841 536.075 149.053 531.54C147.265 527.005 143.991 524.644 142.171 525.362ZM146.993 533.834L144.428 534.845L143.417 532.28L145.982 531.269L146.993 533.834Z" fill="#333333"/>
<path d="M172.593 482.247C171.933 480.568 170.914 479.053 169.607 477.808C168.301 476.564 166.739 475.619 165.03 475.041C163.321 474.462 161.506 474.264 159.712 474.46C157.918 474.656 156.189 475.24 154.645 476.174C156.949 476.78 159.078 477.92 160.859 479.503C162.64 481.085 164.024 483.064 164.898 485.281L166.92 490.411L174.616 487.377L172.593 482.247Z" fill="#333333"/>
<path d="M179.732 492.836C180.63 492.572 181.55 492.39 182.482 492.293L180.757 487.919L178.192 488.931L179.732 492.836Z" fill="#333333"/>
<path d="M148.951 504.973C149.849 504.708 150.769 504.527 151.7 504.429L149.976 500.055L147.411 501.067L148.951 504.973Z" fill="#333333"/>
<path d="M169.658 497.355C170.772 496.509 171.996 495.82 173.296 495.307L177.144 493.79L175.627 489.942L167.932 492.976L169.658 497.355Z" fill="#333333"/>
<path d="M174.308 497.872C170.004 499.568 166.869 503.58 165.613 508.946C169.524 512.007 172.7 516.344 174.703 521.426C176.707 526.508 177.346 531.846 176.576 536.752C181.157 539.817 186.186 540.609 190.489 538.913C198.976 535.567 202.25 523.639 197.789 512.324C193.328 501.009 182.794 494.526 174.308 497.872ZM193.637 527.274C193.102 529.155 191.718 532.501 188.467 533.783C185.215 535.065 181.92 533.563 180.246 532.554C179.54 532.127 178.869 531.646 178.237 531.117L180.003 529C180.527 529.439 181.084 529.838 181.669 530.192C182.908 530.939 185.307 532.065 187.455 531.218C189.603 530.371 190.589 527.91 190.985 526.519C191.921 523.234 191.595 519.166 190.094 515.358C188.592 511.55 186.055 508.356 183.128 506.592C181.889 505.846 179.49 504.72 177.342 505.567C175.193 506.414 174.208 508.874 173.812 510.265C173.627 510.923 173.492 511.595 173.409 512.273L170.673 511.932C170.773 511.114 170.936 510.304 171.16 509.51C171.695 507.63 173.079 504.284 176.33 503.002C179.582 501.72 182.877 503.221 184.551 504.231C187.985 506.3 190.94 509.987 192.659 514.347C194.378 518.707 194.735 523.418 193.637 527.274ZM181.116 518.898C179.982 516.021 180.783 513.101 182.941 512.251C185.098 511.4 187.677 512.987 188.811 515.864C189.945 518.741 189.144 521.66 186.986 522.511C184.829 523.362 182.25 521.775 181.116 518.898Z" fill="#333333"/>
<path d="M153.173 507.106C154.881 507.623 156.516 508.354 158.04 509.282C163.071 512.314 167.166 517.345 169.573 523.449C171.979 529.553 172.42 536.025 170.811 541.675C170.331 543.393 169.635 545.044 168.74 546.587C174.222 541.598 175.832 531.808 172.138 522.438C168.443 513.068 160.585 507.011 153.173 507.106Z" fill="#333333"/>
<path d="M185.975 519.946C186.683 519.667 186.804 518.292 186.246 516.875C185.687 515.459 184.66 514.537 183.952 514.816C183.244 515.095 183.122 516.47 183.681 517.887C184.239 519.303 185.266 520.225 185.975 519.946Z" fill="#333333"/>
<path d="M183.955 494.969C185.662 495.486 187.298 496.217 188.822 497.146C193.852 500.178 197.947 505.209 200.354 511.313C202.76 517.416 203.201 523.889 201.593 529.538C201.113 531.256 200.417 532.907 199.522 534.45C205.003 529.461 206.613 519.671 202.919 510.301C199.225 500.931 191.366 494.875 183.955 494.969Z" fill="#333333"/>
<path d="M161.878 526.483C158.532 517.997 150.056 513.361 142.984 516.149C135.912 518.938 132.881 528.11 136.227 536.596C139.573 545.083 148.049 549.718 155.12 546.93C162.192 544.142 165.224 534.969 161.878 526.483ZM149.25 543.317C145.654 544.735 141.061 541.339 138.792 535.585C136.524 529.832 137.563 524.214 141.159 522.796C144.755 521.379 149.349 524.775 151.617 530.528C153.886 536.282 152.846 541.899 149.25 543.317Z" fill="#333333"/>
<path d="M143.527 510.008C139.839 511.462 137.136 514.537 135.623 518.477C137.242 516.286 139.441 514.591 141.973 513.584C150.459 510.238 160.539 515.571 164.443 525.472C168.346 535.372 164.618 546.149 156.132 549.495C153.594 550.487 150.83 550.749 148.151 550.252C151.946 552.1 156.021 552.503 159.708 551.049C168.194 547.703 171.469 535.775 167.008 524.46C162.546 513.145 152.013 506.662 143.527 510.008Z" fill="#333333"/>
<path d="M89.9109 146.056C87.2374 147.852 84.5826 149.675 81.9279 151.499C80.6615 149.712 80.0858 147.621 78.6862 145.795C77.0578 143.671 74.9534 143.041 72.391 142.741C69.7049 142.427 66.8016 144.034 64.6679 145.449C63.2182 146.411 58.8474 151.002 56.9389 149.228C55.0844 147.504 54.1932 145.29 52.0249 143.698C49.9924 142.205 47.0715 141.869 44.6422 141.821C38.6027 141.702 33.5054 145.977 29.2179 149.683C25.0967 153.247 31.0892 159.185 35.1817 155.647C38.4629 152.81 43.1501 148.522 47.7681 150.98C49.368 151.832 50.3659 154.625 51.7377 155.9C53.48 157.52 55.7627 157.975 58.0521 158.036C63.5274 158.182 66.5919 153.302 71.1481 151.405C72.7055 150.756 72.0051 150.697 72.4266 151.78C72.8899 152.971 73.4534 154.076 74.0977 155.177C75.3912 157.388 77.3513 159.008 79.3451 160.542C80.4355 161.381 82.501 161.303 83.6018 160.542C87.1073 158.116 90.6291 155.715 94.1678 153.338C98.6563 150.323 94.4401 143.014 89.9109 146.056Z" fill="#333333"/>
<path d="M87.6195 169.19C86.76 169.853 85.9244 170.499 85.1275 171.237C84.6086 171.76 84.088 172.282 83.5657 172.801C83.4484 172.89 83.3449 172.97 83.2547 173.041C82.0641 171.066 81.4163 169.102 79.7149 167.42C74.8235 162.585 68.1221 166.523 63.804 169.771C61.0984 171.805 60.0696 167.886 58.4648 166.152C56.3411 163.857 53.8414 162.409 50.8723 161.472C44.0922 159.333 38.012 163.642 32.5187 166.961C27.8715 169.769 32.1079 177.064 36.7755 174.244C42.1566 170.992 48.4111 166.318 53.1552 173.048C56.7404 178.134 60.9926 180.674 67.0282 177.724C68.1761 177.164 73.0959 172.267 74.3059 173.955C75.8979 176.176 76.3214 178.64 78.6093 180.398C83.9718 184.517 87.9162 179.527 91.8763 176.472C96.1172 173.2 91.9259 165.867 87.6195 169.19Z" fill="#333333"/>
<path d="M86.7449 187.105C84.322 189.69 81.9953 192.815 79.0339 194.803C76.5882 196.445 73.7449 190.52 72.2714 189.122C67.0146 184.134 60.5936 188.183 55.8505 191.644C54.7773 192.427 53.7524 193.28 52.7326 194.13C52.6393 194.196 52.5687 194.249 52.4872 194.308C52.2359 193.668 51.982 193.029 51.7127 192.396C50.5526 189.613 48.8779 187.435 46.3367 185.796C40.684 182.151 33.3745 188.271 29.5516 191.935C25.6188 195.704 31.5906 201.66 35.5153 197.899C36.7583 196.707 41.2491 192.191 42.8643 193.7C45.0639 195.754 45.1176 199.41 47.4489 201.61C52.9108 206.763 58.1609 200.196 62.4848 197.25C62.9764 196.915 65.6828 194.868 66.2871 195.133C67.4847 195.657 68.3421 197.516 69.0556 198.528C70.8525 201.077 73.0358 202.829 76.1082 203.5C83.2148 205.054 88.5596 197.495 92.7086 193.069C96.4233 189.106 90.4712 183.129 86.7449 187.105Z" fill="#333333"/>
<path d="M250.057 168.377C242.098 164.663 233.943 161.465 225.578 158.833C225.503 154.139 224.974 149.496 224.026 144.878C223.17 140.71 217.809 141.45 216.554 144.669C216.213 144.885 215.884 145.178 215.577 145.561C211.447 150.702 207.387 155.912 203.165 160.977C201.549 162.916 197.256 161.655 195.112 161.477C191.703 161.194 188.293 160.911 184.884 160.628C181.734 160.366 180.152 164.17 181.462 166.638C185.14 173.569 188.547 180.63 191.683 187.826C191.852 188.318 191.978 188.671 192.07 188.913C191.648 189.52 191.22 190.123 190.782 190.719C189.659 192.275 188.621 193.892 187.596 195.515C185.288 199.169 183.32 203.03 181.538 206.968C179.829 210.744 183.247 214.091 186.96 212.433C196.622 208.118 206.284 203.804 215.946 199.489C221.378 205.52 227.483 210.81 234.18 215.407C237.025 217.36 241.079 214.134 240.001 210.896C237.427 203.161 235.45 195.284 234.063 187.26C240.125 183.715 245.732 179.489 250.859 174.651C252.603 173.006 252.358 169.451 250.057 168.377ZM219.796 191.854C218.555 190.398 216.548 190.535 214.993 191.229C207.916 194.39 200.839 197.55 193.761 200.711C194.236 199.913 194.712 199.117 195.208 198.33C197.201 195.175 200.566 192.139 200.016 188.096C199.448 183.916 196.667 179.54 194.897 175.749C193.868 173.544 192.803 171.357 191.71 169.184C193.331 169.319 194.952 169.453 196.574 169.588C199.459 169.828 203.313 170.584 205.944 168.876C209.081 166.84 211.15 163.7 213.471 160.81C214.826 159.123 216.181 157.436 217.536 155.748C217.66 157.748 217.698 159.758 217.645 161.787C217.599 163.581 218.893 165.145 220.555 165.639C227.439 167.685 234.183 170.105 240.778 172.924C236.711 176.245 232.367 179.155 227.721 181.689C226.034 182.609 225.632 184.449 225.9 186.2C226.673 191.266 227.689 196.271 228.93 201.222C225.69 198.318 222.646 195.194 219.796 191.854Z" fill="#333333"/>
<path d="M400.231 158.301C397.011 156.629 392.527 156.641 388.995 156.076C388.205 155.95 387.414 155.823 386.624 155.697C389.061 153.18 390.983 150.135 392.369 146.711C393.915 142.891 393.919 138.702 393.3 134.707C392.731 131.032 388.351 127.929 384.615 129.353C380.297 131 378.437 134.7 375.354 137.879C371.991 141.348 367.669 143.863 363.121 145.473C355.881 148.037 345.448 145.916 341.287 153.887C340.816 154.79 340.697 155.673 340.827 156.479C338.397 162.052 336.937 167.783 336.333 173.891C335.807 179.207 335.175 190.112 340.708 193.281C347.291 197.052 355.48 199.596 362.729 201.846C369.659 203.997 376.82 204.651 383.96 203.286C398.279 200.546 404.177 187.854 404.784 174.692C405.037 169.202 405.987 161.29 400.231 158.301ZM396.373 174.692C396.112 184.699 392.096 192.787 381.724 195.259C371.26 197.751 360.063 192.254 350.605 188.511C347.814 187.406 345.519 187.221 344.97 183.986C344.487 181.135 344.531 178.169 344.646 175.292C344.863 169.91 346.337 164.545 348.569 159.637C349.116 159.056 349.461 158.466 349.689 157.687C349.785 157.358 349.83 157.035 349.839 156.716C352.987 154.56 359.774 154.967 362.891 154.228C369.05 152.768 374.613 149.491 379.422 145.504C381.683 143.629 383.526 141.366 385.309 139.059C385.321 139.043 385.33 139.024 385.342 139.007C385.335 140.145 385.164 141.267 384.917 142.383C383.693 147.927 379.275 152.434 373.838 154.009C370.13 155.084 369.52 161.346 373.838 162.036C379.76 162.984 385.682 163.931 391.604 164.878C393.721 165.217 396.19 164.69 396.299 167.147C396.41 169.662 396.438 172.176 396.373 174.692Z" fill="#333333"/>
<path d="M512.246 216.636C511.68 216.298 510.998 216.083 510.188 216.058C496.363 215.646 482.737 217.258 471.613 226.119C462.712 233.209 458.888 245.795 463.001 256.278C458.66 262.042 454.802 268.181 451.503 274.633C449.041 279.448 456.291 283.702 458.759 278.875C461.823 272.883 465.369 267.199 469.345 261.868C469.378 261.86 469.409 261.845 469.443 261.836C480.327 266.947 492.789 260.292 501.228 252.866C510.718 244.518 516.308 232.573 517.957 220.194C518.431 216.639 514.891 215.475 512.246 216.636ZM478.756 231.154C484.262 227.126 490.799 225.408 497.495 224.751C487.167 231.153 477.803 239.04 469.722 248.09C469.448 241.583 473.228 235.197 478.756 231.154ZM497.119 245.175C491.763 250.707 482.944 256.73 475.041 254.827C484.204 244.312 495.174 235.455 507.49 228.669C505.293 234.826 501.698 240.445 497.119 245.175Z" fill="#333333"/>
<path d="M212.183 280.197C201.051 279.283 189.898 278.892 178.728 279.025C175.855 279.06 174.252 281.434 174.202 283.637C173.959 284.096 173.794 284.633 173.739 285.258C172.831 295.74 172.508 306.239 172.717 316.741C171.351 316.149 169.996 316.341 168.902 316.968C163.012 315.025 156.751 316.682 153.055 322.243C148.355 329.315 152.234 337.263 159.456 340.487C166.442 343.607 174.39 341.94 178.369 335.134C179.172 333.76 179.657 332.299 179.887 330.817C180.908 329.999 181.602 328.752 181.51 327.149C180.743 313.866 180.963 300.574 182.06 287.317C190.322 287.316 198.575 287.603 206.817 288.175C205.367 296.698 203.918 305.22 202.468 313.743C198.269 311.747 192.589 311.773 188.533 313.938C180.33 318.315 181.25 329.83 188.031 334.814C192.113 337.813 198.186 338.737 202.85 336.934C207.494 335.138 208.432 329.012 209.139 324.854C211.41 311.499 213.682 298.143 215.953 284.788C216.33 282.572 214.372 280.377 212.183 280.197ZM164.812 333.604C161.539 332.812 158.662 330.696 159.944 327.159C160.917 324.475 164.51 323.729 166.831 325C167.974 325.625 169.129 325.698 170.159 325.418C172.999 329.122 170.5 334.98 164.812 333.604ZM197.555 329.559C195.224 329.428 191.799 328.138 191.152 325.697C189.527 319.572 200.473 318.715 199.436 323.545C199.122 325.009 199.544 326.127 200.34 326.868C199.927 328.407 199.16 329.65 197.555 329.559Z" fill="#333333"/>
<path d="M320.631 523.777C318.133 520.911 314.003 519.513 310.497 518.396C307.799 517.536 301.995 516.254 301.269 512.888C301.338 511.95 301.416 511.012 301.47 510.074C301.744 505.32 294.372 504.44 293.223 508.963C292.876 510.328 292.779 511.642 292.883 512.896C292.057 523.709 290.073 534.339 287.004 544.703C280.004 541.558 270.883 544.361 266.581 551.011C260.772 559.993 265.064 572.209 276.487 572.975C287.743 573.73 291.866 557.214 294.385 549.39C297.117 540.905 299.002 532.155 300.191 523.317C300.868 523.713 301.571 524.073 302.299 524.389C305.378 525.725 308.715 526.346 311.769 527.729C313.614 528.564 317.977 532.068 314.571 533.723C309.705 536.088 313.964 543.293 318.809 540.939C325.781 537.551 325.046 528.842 320.631 523.777ZM279.198 563.227C276.772 565.878 273.386 564.134 272.315 561.175C270.06 554.948 279.377 549.552 284.365 552.799C283.987 553.865 283.6 554.929 283.198 555.989C282.215 558.579 281.09 561.161 279.198 563.227Z" fill="#333333"/>
<path d="M144.631 57.7772C142.133 54.9109 138.003 53.5126 134.497 52.3958C131.799 51.5364 125.995 50.2545 125.269 46.8879C125.338 45.95 125.416 45.0124 125.47 44.0742C125.744 39.3199 118.372 38.4404 117.223 42.9634C116.876 44.3284 116.779 45.6421 116.883 46.8959C116.057 57.7092 114.073 68.3387 111.004 78.7033C104.004 75.5581 94.883 78.3609 90.5814 85.0111C84.7719 93.9926 89.0636 106.209 100.487 106.975C111.743 107.73 115.866 91.2139 118.385 83.3898C121.117 74.9049 123.002 66.155 124.191 57.317C124.868 57.7125 125.571 58.0733 126.299 58.3891C129.378 59.7255 132.715 60.3458 135.769 61.7288C137.614 62.564 141.977 66.068 138.571 67.7232C133.705 70.0877 137.964 77.2933 142.809 74.9388C149.781 71.551 149.046 62.8425 144.631 57.7772ZM103.198 97.2274C100.772 99.8779 97.3862 98.1336 96.3149 95.1749C94.06 88.9478 103.377 83.5524 108.365 86.7992C107.987 87.8652 107.6 88.9289 107.198 89.9886C106.215 92.5794 105.09 95.1613 103.198 97.2274Z" fill="#333333"/>
<path d="M139.665 797.328C138.512 794.283 137.218 791.293 135.726 788.405C133.271 783.653 129.806 779.396 125.369 776.523C126.995 772.995 128.162 769.181 128.051 765.294C127.912 760.411 125.119 756.056 122.302 752.251C122.265 750.632 121.365 749.1 119.33 748.626C110.446 746.555 101.447 749.648 96.369 757.53C92.4475 763.617 93.001 771.061 96.4452 776.873C87.189 779.039 80.3226 786.772 76.6316 796.357C74.6413 801.526 73.316 808.412 79.8101 810.671C87.0789 813.2 95.6237 813.666 103.235 814.358C111.176 815.079 119.165 815.15 127.126 814.783C133.953 814.468 141.039 814.052 141.964 805.721C142.267 802.986 140.6 799.798 139.665 797.328ZM103.535 761.804C105.738 757.683 110.703 756.112 115.105 756.481C118.45 760.993 120.792 765.017 118.693 770.896C117.842 773.281 116.658 775.852 115.023 777.781C112.642 780.587 108.082 777.185 105.975 775.507C101.654 772.068 100.989 766.566 103.535 761.804ZM133.184 805.812C130.914 806.572 127.903 806.278 125.533 806.388C120.224 806.632 114.905 806.561 109.597 806.322C104.13 806.075 98.6709 805.52 93.2552 804.728C90.6249 804.343 88.0092 803.862 85.3989 803.358C84.7097 803.235 84.0278 803.077 83.3475 802.912C83.4934 802.32 83.6346 801.727 83.805 801.142C86.1575 792.576 93.3365 783.335 103.056 784.67C103.562 784.739 104.039 784.724 104.485 784.642C107.426 786.38 110.704 787.499 114.131 787.252C116.864 787.055 119.088 785.625 120.885 783.697C126.656 787.569 129.635 794.225 132.099 800.732C132.49 801.764 134.289 805.442 133.184 805.812Z" fill="#333333"/>
<path d="M343.25 346.498C336.107 343.788 328.623 345.255 322.665 349.37C313.464 334.867 284.2 343.301 283.084 361.358C282.426 372.022 285.659 383.403 291.58 392.23C297.467 401.006 306.368 407.843 314.938 413.813C319.4 416.922 323.664 413.235 327.165 410.608C331.86 407.085 336.443 403.425 340.66 399.33C348.819 391.409 354.525 381.443 355.829 370.051C356.932 360.403 352.699 350.082 343.25 346.498ZM346.843 373.111C345.319 380.51 340.816 386.883 335.726 392.257C332.977 395.16 329.898 397.744 326.796 400.252C325.127 401.602 323.405 402.884 321.689 404.172C320.278 405.231 319.574 406.728 318.327 405.859C305.893 397.196 295.448 387.037 292.303 371.687C291.516 367.848 291.024 363.611 291.887 359.757C292.75 355.897 296.943 353.649 300.14 352.007C305.725 349.139 313.685 349.829 316.23 355.799C314.183 359.967 319.599 365.031 322.735 360.98C326.971 355.508 332.939 352.196 339.867 354.263C347.75 356.615 348.214 366.458 346.843 373.111Z" fill="#333333"/>
<path d="M71.5006 622.661C75.7411 616.582 74.2254 608.02 69.657 602.709C60.5453 592.116 42.9045 600.996 44.5564 613.529C39.1086 615.671 34.1208 618.71 29.7731 622.591C27.1595 619.507 22.7904 617.853 18.5542 618.308C11.658 619.049 3.56496 624.953 1.0705 631.49C-4.20151 645.305 11.0779 658.015 23.3444 650.963C28.7958 654.138 34.1284 657.499 39.3452 661.045C39.2219 667.4 44.8075 672.303 51.2923 672.917C58.7189 673.621 66.2583 669.812 69.4551 662.95C72.4 656.629 70.668 648.27 64.9658 644.08C60.1616 640.55 53.4918 640.487 48.6357 643.671C46.1535 641.753 43.7238 639.772 41.3495 637.723C46.5745 633.697 52.2121 630.298 58.1876 627.48C62.6889 629.908 68.2938 627.258 71.5006 622.661ZM55.9994 619.275C55.5397 619.565 55.1339 619.926 54.8249 620.35C46.7023 624.122 39.2547 628.976 32.4262 634.795C30.8395 636.147 30.9152 639.031 32.4262 640.396C37.0242 644.551 41.8185 648.452 46.7841 652.159C48.1342 653.166 50.5053 652.751 51.5861 651.539C56.5179 646.011 63.9283 651.268 62.8298 657.883C62.2305 661.492 59.1183 663.759 55.8363 664.768C52.7684 665.711 46.1184 664.802 47.4374 660.219C47.9572 658.413 47.0774 656.761 45.6164 655.746C39.0084 651.155 32.2132 646.869 25.224 642.883C24.1097 642.247 22.316 642.042 21.224 642.883C15.3297 647.417 6.64344 643.682 8.03914 635.658C8.5644 632.639 11.1835 630.386 13.765 628.68C14.0077 628.511 14.2558 628.349 14.5105 628.199C14.9143 627.946 15.3122 627.705 15.6955 627.477C17.8486 626.197 22.0693 625.446 23.6324 627.494C26.3339 628.616 28.2135 630.87 28.3516 633.793C29.3288 633.797 30.2907 633.446 30.9963 632.631C36.2394 626.573 42.7224 622.218 50.3949 619.857C52.2566 619.284 54.0146 617.023 53.1625 614.985C50.7759 609.277 55.5667 604.765 61.2485 606.443C64.0133 607.259 65.6798 610.103 66.0013 612.803C66.1956 614.435 65.8848 616.14 65.2278 617.638C65.1361 617.847 64.8498 618.346 64.47 618.884C63.6203 620.745 61.5387 621.683 59.5181 621.207C58.7393 621.023 58.1736 620.97 57.4138 620.527C56.7388 620.134 56.3929 619.774 55.9994 619.275Z" fill="#333333"/>
<path d="M242.87 681.254C239.146 666.665 224.673 660.232 210.869 659.094C202.828 658.431 194.159 659.122 186.25 660.68C177.968 662.312 172.725 667.813 167.809 674.237C166.328 676.171 167.036 678.077 168.54 679.174C173.005 692.084 185.075 701.047 198.548 702.752C213.798 704.682 228.65 697.333 238.889 686.363C241.263 686.238 243.635 684.25 242.87 681.254ZM202.022 694.837C190.908 694.637 179.945 687.146 176.355 676.583C179.634 672.656 183.096 669.894 188.438 668.615C194.61 667.137 201.519 667.118 207.833 667.188C217.68 667.297 229.153 670.697 233.644 679.924C225.452 688.96 214.438 695.062 202.022 694.837Z" fill="#333333"/>
<path d="M213.498 679.561C213.084 673.893 207.753 667.799 201.611 669.934C201.084 670.117 200.641 670.373 200.269 670.677C194.153 670.015 191.963 678.677 192.968 683.52C194.095 688.951 200.254 691.766 205.324 690.767C210.582 689.731 213.881 684.794 213.498 679.561ZM204.173 682.585C203.172 682.959 202.052 682.82 201.255 682.076C200.825 681.676 200.835 680.946 200.824 680.396C200.815 679.96 200.928 679.546 201.051 679.133C202.039 679.082 202.857 678.635 203.457 677.969C203.57 677.939 203.683 677.909 203.799 677.869C205.296 677.348 206.005 681.902 204.173 682.585Z" fill="#333333"/>
<path d="M207.138 649.07C207.053 648.724 206.977 648.378 206.91 648.028C206.905 648.003 206.902 647.987 206.898 647.965C206.894 647.905 206.889 647.827 206.879 647.71C206.806 646.882 206.839 646.048 206.915 645.222C207.12 642.985 204.888 641.108 202.801 641.108C200.403 641.108 198.891 642.99 198.687 645.222C198.501 647.242 198.72 649.291 199.203 651.258C199.738 653.435 202.149 654.713 204.264 654.131C206.47 653.525 207.673 651.246 207.138 649.07Z" fill="#333333"/>
<path d="M226.607 643.313C225.535 641.484 222.83 640.567 220.978 641.837C217.392 644.296 215.339 647.876 215.008 652.208C214.837 654.448 217.009 656.323 219.122 656.323C221.494 656.323 223.065 654.444 223.236 652.208C223.241 652.149 223.243 652.117 223.247 652.071C223.3 651.81 223.365 651.552 223.441 651.298C223.518 651.088 223.557 650.974 223.567 650.933C223.653 650.757 223.739 650.582 223.836 650.412C223.948 650.218 224.072 650.031 224.198 649.846C224.243 649.795 224.306 649.724 224.405 649.608C224.591 649.409 224.786 649.22 224.99 649.04C224.682 649.25 224.729 649.218 225.131 648.943C226.976 647.677 227.802 645.354 226.607 643.313Z" fill="#333333"/>
<path d="M187.896 653.169C187.449 650.079 186.384 647.145 184.89 644.408C182.348 639.749 175.242 643.901 177.785 648.561C178.948 650.693 179.613 652.952 179.961 655.356C180.283 657.58 183.067 658.768 185.023 658.23C187.384 657.58 188.217 655.386 187.896 653.169Z" fill="#333333"/>
<path d="M460.858 416.126C450.226 418.487 442.132 425.847 438.211 435.192C435.612 431.852 432.34 429.031 428.527 426.991C428.199 426.815 427.875 426.691 427.555 426.604C423.695 424.126 418.69 429.646 422.371 433.204C424.952 435.699 421.401 439.221 419.632 440.958C417.243 443.304 414.926 445.432 412.932 448.154C409.351 453.042 407.849 459.578 408.012 465.584C408.391 479.514 420.231 488.636 433.215 488.99C447.321 489.376 459.365 478.104 461.988 464.421C463.453 456.78 461.076 449.469 459.125 442.176C457.696 436.835 456.387 426.852 463.081 424.337C468.1 422.451 466.182 414.943 460.858 416.126ZM452.352 467.735C449.592 474.302 443.835 478.471 437.16 480.084C430.896 481.597 423.305 479.294 419.326 474.036C415.748 469.31 415.809 463.063 417.488 457.624C419.462 451.228 425.337 448.412 428.878 443.192C429.674 442.019 430.307 440.741 430.758 439.416C433.002 441.941 434.644 444.933 435.596 448.208C435.598 451.025 435.949 453.892 436.686 456.75C437.909 461.496 444.757 460.36 444.898 455.618C444.986 452.654 444.653 449.731 443.944 446.926C444.193 441.279 446.362 436.063 449.949 432.007C449.578 436.607 450.277 441.504 451.447 445.877C453.431 453.296 455.485 460.281 452.352 467.735Z" fill="#333333"/>
<path d="M363.667 720.577C363.652 720.559 363.636 720.545 363.621 720.527C356.271 707.857 339.69 707.071 328.873 715.772C320.08 722.845 318.006 734.54 320.639 744.993C317.438 746.779 315.312 750.445 313.061 753.217L302.128 766.681C300.681 768.463 300.568 770.562 302.128 772.333C305.396 776.044 308.41 779.917 311.201 783.996C312.52 785.924 315.774 786.944 317.504 784.805C323.237 777.716 329.621 771.257 336.623 765.443C345.934 769.651 357.124 767.9 364.57 759.009C373.816 747.971 372.717 731.28 363.667 720.577ZM314.916 775.481C313.385 773.423 311.802 771.406 310.157 769.436L315.755 762.541C317.081 760.909 318.406 759.277 319.731 757.645C320.593 756.583 322.087 753.962 323.537 752.641C324.266 754.043 325.081 755.388 325.988 756.649C327.109 758.21 328.359 759.606 329.703 760.846C324.407 765.35 319.472 770.23 314.916 775.481ZM360.142 751.418C355.827 759.245 348.077 761.122 341.183 758.532C340.409 757.001 338.543 755.84 336.622 756.058C335.34 755.124 334.131 754.024 333.04 752.757C325.936 744.516 325.477 731.008 332.906 722.96C339.745 715.552 352.176 716.058 357.096 725.27C357.439 725.913 357.875 726.38 358.359 726.703C363.924 733.692 364.412 743.672 360.142 751.418Z" fill="#333333"/>
<path d="M320.547 58.6742C316.005 49.3441 311.463 40.0141 306.921 30.684C302.33 21.2524 297.913 11.7009 292.158 2.91877C291.392 1.75077 290.339 1.17512 289.251 1.03615C287.787 -0.270519 285.65 -0.559113 284.079 1.45669C270.917 18.3476 258.415 35.7389 246.641 53.6474C244.771 56.4924 247.303 59.7414 250.226 59.9615C272.471 61.6372 294.717 63.3127 316.962 64.9883C320.334 65.2423 321.823 61.2969 320.547 58.6742ZM287.293 10.838C291.676 18.1115 295.315 25.8043 299.035 33.4467C302.707 40.9895 306.379 48.5324 310.05 56.0753C292.579 54.7592 275.107 53.4432 257.635 52.1271C267.071 38.0394 276.955 24.2651 287.293 10.838Z" fill="#333333"/>
<path d="M575.783 719.454C575.472 714.643 575.33 709.318 570.661 706.718C568.584 705.562 565.706 705.597 563.415 705.312C559.83 704.865 556.235 704.507 552.637 704.184C545.954 703.586 539.249 703.252 532.543 703.083C525.836 702.915 519.124 703.012 512.42 703.276C507.403 703.473 502.694 706.154 503.166 711.393C503.03 717.987 502.982 724.582 503.025 731.177C503.068 737.811 502.716 744.76 503.735 751.324C504.718 757.657 513.22 757.414 517.906 758.029C523.941 758.82 529.99 759.493 536.047 760.089C536.087 764.745 535.942 769.394 535.593 774.044C535.326 777.593 540.108 779.277 542.414 776.88C547.733 771.351 552.454 765.317 556.552 758.834C558.513 758.78 560.462 758.631 562.415 758.355C564.979 757.993 569.134 757.876 571.076 755.927C572.798 754.198 573.046 750.702 573.573 748.431C574.32 745.207 574.852 741.919 575.248 738.633C576.018 732.248 576.197 725.873 575.783 719.454ZM568.021 728.318C567.93 735.574 566.819 742.741 565.006 749.747C562.417 750.317 559.824 750.682 557.142 750.819C553.66 750.997 552.06 750.862 550.137 754.045C548.283 757.115 546.234 760.049 544.033 762.863C544.05 760.73 544.04 758.596 543.976 756.459C543.905 754.119 542.201 752.655 539.98 752.449C534.188 751.911 528.404 751.295 522.628 750.601C519.833 750.265 517.041 749.901 514.251 749.52C514.5 749.554 511.397 749.07 511.441 749.192C511.036 748.048 511.301 746.256 511.266 745.06C510.942 734.07 510.929 723.073 511.146 712.082C511.191 711.762 511.198 711.425 511.159 711.07C511.161 710.941 511.157 710.815 511.149 710.693C512.098 712.068 520.361 711.066 521.706 711.047C525.834 710.987 529.964 711.039 534.091 711.143C542.346 711.35 550.589 711.945 558.801 712.803C560.854 713.018 562.903 713.269 564.952 713.524C567.322 713.819 567.282 714.263 567.533 716.509C567.97 720.428 568.071 724.378 568.021 728.318Z" fill="#333333"/>
<path d="M473.905 589.085C460.312 573.633 434.229 568.462 421.195 586.111C416.519 589.34 412.741 593.846 410.404 599.142C405.891 609.371 408.162 621.153 413.651 630.528C424.653 649.321 449.229 654.97 467.492 643.476C476.281 637.944 481.933 628.393 483.259 618.186C484.681 607.246 481.118 597.286 473.905 589.085ZM463.138 636.027C449.744 645.193 431.819 641.024 422.477 628.272C417.605 621.621 415.272 612.831 417.465 604.779C418.398 601.355 420.279 598.354 422.744 595.926C424.144 596.025 425.568 595.432 426.469 593.821C426.733 593.349 427.008 592.903 427.288 592.468C429.509 591.17 431.939 590.225 434.436 589.706C437.266 589.118 437.997 586.59 437.288 584.455C447.429 581.135 460.075 586.958 467.805 595.185C479.039 607.142 476.552 626.847 463.138 636.027Z" fill="#333333"/>
<path d="M458.072 611.07C454.396 611.699 450.72 612.328 447.044 612.956C448.116 606.429 449.188 599.901 450.259 593.373C451.152 587.933 442.84 585.6 441.941 591.08C440.519 599.738 439.098 608.397 437.677 617.056C437.118 620.459 439.56 622.947 442.982 622.361L460.365 619.389C465.84 618.452 463.511 610.14 458.072 611.07Z" fill="#333333"/>
<path d="M479.24 78.8845C481.187 70.981 473.659 63.6044 466.548 60.4525C461.651 58.2823 456.507 56.5185 451.708 59.86C449.027 61.7269 447.624 64.4499 446.844 67.4207C437.844 63.3299 426.358 68.7015 424.329 78.5957C424.071 78.7226 423.817 78.8801 423.57 79.0746C419.502 82.2731 415.933 85.6568 414.45 90.7558C412.946 95.9269 415.357 100.653 419.527 103.605C424.075 106.825 431.089 107.172 436.439 107.557C443.146 108.04 449.939 107.845 456.658 107.811C466.711 107.76 482.103 110.155 487.522 99.2423C491.568 91.0936 486.814 82.2892 479.24 78.8845ZM479.151 98.0466C476.753 100.472 471.76 100.006 468.679 100.073C464.172 100.171 459.663 100.219 455.155 100.242C446.611 100.285 437.778 100.708 429.351 99.0814C425.868 98.4093 420.951 97.3135 421.765 92.7699C422.196 90.3693 424.002 88.4347 425.956 86.7852C428.356 88.3367 432.195 87.4011 431.74 83.9067C430.553 74.7947 440.87 69.8125 446.975 76.9515C449.301 79.6714 453.241 77.2736 453.45 74.2728C453.634 71.6345 453.735 68.7088 455.498 66.5656C457.52 64.1069 461.546 66.4748 463.789 67.4691C468.175 69.4131 474.437 74.0544 470.668 79.3504C469.346 81.2076 470.615 84.5604 472.935 84.9154C479.201 85.8741 484.63 92.5069 479.151 98.0466Z" fill="#333333"/>
</svg>
