<svg width="1440" height="230" viewBox="0 0 1440 230" fill="none" xmlns="http://www.w3.org/2000/svg">
<path fill-rule="evenodd" clip-rule="evenodd" d="M0 163.2L34 152.622C69 141.289 137 120.133 206 114.089C274 108.8 343 120.133 411 98.2222C480 76.3111 549 21.9111 617 38.5333C686 54.4 754 141.289 823 174.533C891 207.022 960 185.111 1029 147.333C1097 108.8 1166 54.4 1234 27.2C1303 0 1371 0 1406 0H1440V238H1406C1371 238 1303 238 1234 238C1166 238 1097 238 1029 238C960 238 891 238 823 238C754 238 686 238 617 238C549 238 480 238 411 238C343 238 274 238 206 238C137 238 69 238 34 238H0V163.2Z" fill="#FFB800" fill-opacity="0.8"/>
</svg>
