<svg width="1440" height="188" viewBox="0 0 1440 188" fill="none" xmlns="http://www.w3.org/2000/svg">
<path fill-rule="evenodd" clip-rule="evenodd" d="M0 108.417V94.3993C52 65.7893 134 22.8742 194 17.6039C254 11.5808 368 54.4958 428 65.7893C488 76.3298 514 34.1677 574 34.1677C634 34.1677 660 64.749 720 81.3127C780 97.1236 840 48.1853 900 54.2085C960 59.4788 1020 118.958 1080 108.417C1140 97.1236 1200 64.749 1260 42.9151C1320 21.834 1380 10.5405 1410 5.27027L1440 0V195H1410C1380 195 1320 195 1260 195C1200 195 1140 195 1080 195C1020 195 960 195 900 195C840 195 780 195 720 195C660 195 600 195 540 195C480 195 420 195 360 195C300 195 240 195 180 195C120 195 60 195 30 195H0V108.417Z" fill="#FFD66B"/>
</svg>
