<?xml version="1.0" standalone="no"?>
<!DOCTYPE svg PUBLIC "-//W3C//DTD SVG 20010904//EN"
 "http://www.w3.org/TR/2001/REC-SVG-20010904/DTD/svg10.dtd">
<svg version="1.0" xmlns="http://www.w3.org/2000/svg"
 width="242.000000pt" height="242.000000pt" viewBox="0 0 242.000000 242.000000"
 preserveAspectRatio="xMidYMid meet">
<metadata>
Created by potrace 1.11, written by Peter Selinger 2001-2013
</metadata>
<g transform="translate(0.000000,242.000000) scale(0.100000,-0.100000)"
fill="#000000" stroke="none">
<path d="M1930 2027 c-3 -3 -23 -7 -45 -11 -90 -13 -223 -59 -342 -120 -40
-20 -75 -36 -78 -36 -5 -1 -176 -106 -230 -143 l-35 -24 97 -69 c53 -38 105
-73 114 -79 247 -146 395 -197 564 -198 194 0 327 79 408 242 42 86 42 143 -1
228 -71 140 -188 208 -367 212 -44 1 -83 0 -85 -2z"/>
<path d="M330 1925 c-131 -22 -239 -97 -297 -206 -25 -49 -27 -63 -27 -159 0
-122 6 -166 35 -275 117 -449 475 -784 939 -880 130 -27 346 -25 480 4 58 13
110 26 115 29 6 4 15 7 20 8 24 4 152 59 177 76 14 10 29 18 32 18 10 0 155
99 185 126 55 48 68 61 124 122 130 143 232 342 278 540 18 80 35 268 20 222
-64 -193 -228 -310 -436 -310 -46 0 -73 4 -183 26 -140 28 -412 183 -709 405
-29 22 -55 39 -58 39 -4 0 -27 14 -51 31 -69 47 -260 136 -344 159 -125 34
-206 41 -300 25z"/>
</g>
</svg>
