<svg width="50" height="46" viewBox="0 0 50 46" fill="none" xmlns="http://www.w3.org/2000/svg">
<path fill-rule="evenodd" clip-rule="evenodd" d="M35.3483 3.6595e-05C32.0581 -3.49634e-06 29.9373 0.391963 27.506 1.58198C26.6059 2.02257 25.7615 2.55316 24.9772 3.17218C24.2232 2.58787 23.4125 2.08163 22.5496 1.65485C20.0712 0.429035 17.8415 0 14.6694 0C6.17372 0 0 7.03924 0 16.1815C0 23.0858 3.84962 29.7552 11.0201 36.2043C14.7838 39.5894 19.5894 42.9394 23.0309 44.7215L25 45.7412L26.9691 44.7215C30.4106 42.9394 35.2161 39.5894 38.9799 36.2043C46.1504 29.7552 50 23.0858 50 16.1815C50 7.13601 43.7681 0.0349053 35.3483 3.6595e-05ZM45.4545 16.1816C45.4545 21.5907 42.2413 27.1576 35.9403 32.8247C32.505 35.9144 28.0886 39.0022 25 40.6221C21.9115 39.0022 17.495 35.9144 14.0597 32.8247C7.75869 27.1576 4.54546 21.5907 4.54546 16.1816C4.54546 9.42666 8.82646 4.54549 14.6694 4.54549C17.1916 4.54549 18.7457 4.84455 20.5344 5.72922C21.5909 6.25178 22.5247 6.94179 23.333 7.80406L25.0053 9.58799L26.6624 7.78992C27.4889 6.8931 28.4364 6.18739 29.5044 5.66464C31.2406 4.81479 32.6977 4.54549 35.3388 4.54551C41.1096 4.56942 45.4545 9.5204 45.4545 16.1816Z" fill="#E5E5E5"/>
</svg>
