<svg width="50" height="38" viewBox="0 0 50 38" fill="none" xmlns="http://www.w3.org/2000/svg">
<path fill-rule="evenodd" clip-rule="evenodd" d="M37.7262 24.6311V11.1332L50 19.3157L47.0104 23.8L43.1157 21.2036V30.9894C43.1157 34.9061 39.3554 37.7263 35.0315 37.7263C30.7076 37.7263 26.9473 34.9061 26.9473 30.9894C26.9473 27.0728 30.7076 24.2526 35.0315 24.2526C35.9669 24.2526 36.8759 24.3846 37.7262 24.6311ZM0 37.7263V32.3368H21.5579V37.7263H0ZM0 26.9474V21.5579H21.5579V26.9474H0ZM0 16.1684V10.779H32.3369V16.1684H0ZM0 5.38948V0H40.4211V5.38948H0ZM35.0316 32.3369C36.6607 32.3369 37.7263 31.5377 37.7263 30.9895C37.7263 30.4413 36.6607 29.6421 35.0316 29.6421C33.4024 29.6421 32.3368 30.4413 32.3368 30.9895C32.3368 31.5377 33.4024 32.3369 35.0316 32.3369Z" fill="#E5E5E5"/>
</svg>
