<svg width="50" height="50" viewBox="0 0 50 50" fill="none" xmlns="http://www.w3.org/2000/svg">
<path fill-rule="evenodd" clip-rule="evenodd" d="M25 50C29.3114 50 33.4675 48.905 37.1487 46.8544L47.7367 47.7367L46.8544 37.1487C48.905 33.4675 50 29.3114 50 25C50 11.1929 38.8071 0 25 0C11.1929 0 0 11.1929 0 25C0 38.8071 11.1929 50 25 50ZM35.2875 42.1553L35.979 41.7396L42.2633 42.2633L41.7396 35.979L42.1553 35.2875C44.0076 32.2061 45 28.6788 45 25C45 13.9543 36.0457 5 25 5C13.9543 5 5 13.9543 5 25C5 36.0457 13.9543 45 25 45C28.6788 45 32.2061 44.0076 35.2875 42.1553ZM25.0008 37.4958C26.382 37.4958 27.5016 36.3765 27.5016 34.9958C27.5016 33.6151 26.382 32.4958 25.0008 32.4958C23.6197 32.4958 22.5 33.6151 22.5 34.9958C22.5 36.3765 23.6197 37.4958 25.0008 37.4958ZM22.5 30.0001H27.5V27.5001C27.5 27.5062 27.5118 27.4932 27.5386 27.4637C27.6042 27.3914 27.7596 27.2201 28.0512 26.9888C28.3016 26.7901 28.3793 26.7386 29.012 26.3375C31.1651 24.9726 32.5 22.599 32.5 20.0001C32.5 15.8579 29.1421 12.5001 25 12.5001C20.8579 12.5001 17.5 15.8579 17.5 20.0001H22.5C22.5 18.6194 23.6193 17.5001 25 17.5001C26.3807 17.5001 27.5 18.6194 27.5 20.0001C27.5 20.8684 27.0563 21.6572 26.3349 22.1146C25.5254 22.6278 25.391 22.7168 24.9437 23.0717C23.4568 24.2513 22.5 25.6568 22.5 27.5001V30.0001Z" fill="#E5E5E5"/>
</svg>
