<svg width="399" height="120" viewBox="0 0 399 120" fill="none" xmlns="http://www.w3.org/2000/svg">
<path d="M11.4163 69.0141C11.4163 72.1511 8.85506 74.7123 5.71807 74.7123C2.56122 74.7123 0 72.1511 0 69.0141V51.0062C0 47.8493 2.56122 45.2881 5.71807 45.2881C8.87492 45.2881 11.4163 47.8493 11.4163 51.0062V69.0141Z" fill="white"/>
<path d="M31.7472 81.9388C31.7472 85.0758 29.2059 87.637 26.049 87.637C22.8922 87.637 20.3508 85.0758 20.3508 81.9388V38.0606C20.3508 34.9037 22.8922 32.3425 26.049 32.3425C29.2059 32.3425 31.7472 34.9037 31.7472 38.0606V81.9388Z" fill="white"/>
<path d="M52.0979 101.357C52.0979 104.494 49.5367 107.055 46.3997 107.055C43.2428 107.055 40.6816 104.494 40.6816 101.357V18.6636C40.6816 15.5068 43.2428 12.9456 46.3997 12.9456C49.5565 12.9456 52.0979 15.5068 52.0979 18.6636V101.357Z" fill="white"/>
<path d="M72.4487 69.9668C72.4487 73.1236 69.9073 75.6848 66.7505 75.6848C63.5936 75.6848 61.0324 73.1236 61.0324 69.9668V50.0329C61.0324 46.8761 63.5936 44.3347 66.7505 44.3347C69.9073 44.3347 72.4487 46.8761 72.4487 50.0329V69.9668Z" fill="white"/>
<path d="M92.7993 89.3842C92.7993 92.5212 90.258 95.0825 87.1011 95.0825C83.9443 95.0825 81.4029 92.5212 81.4029 89.3842V30.6152C81.4029 27.4584 83.9443 24.917 87.1011 24.917C90.258 24.917 92.7993 27.4584 92.7993 30.6152V89.3842Z" fill="white"/>
<path d="M113.15 76.4397C113.15 79.5766 110.609 82.1379 107.452 82.1379C104.295 82.1379 101.754 79.5766 101.754 76.4397V43.5608C101.754 40.4039 104.295 37.8625 107.452 37.8625C110.609 37.8625 113.15 40.4039 113.15 43.5608V76.4397Z" fill="white"/>
<path d="M133.501 114.302C133.501 117.439 130.96 120 127.803 120C124.646 120 122.104 117.439 122.104 114.302V5.71807C122.104 2.56122 124.646 0 127.803 0C130.96 0 133.501 2.56122 133.501 5.71807V114.302Z" fill="white"/>
<path d="M174.203 76.4397C174.203 79.5766 171.661 82.1379 168.504 82.1379C165.347 82.1379 162.806 79.5766 162.806 76.4397V43.5608C162.806 40.4039 165.347 37.8625 168.504 37.8625C171.661 37.8625 174.203 40.4039 174.203 43.5608V76.4397Z" fill="white"/>
<path d="M153.852 89.3842C153.852 92.5212 151.311 95.0825 148.154 95.0825C144.997 95.0825 142.455 92.5212 142.455 89.3842V30.6152C142.455 27.4584 144.997 24.917 148.154 24.917C151.311 24.917 153.852 27.4584 153.852 30.6152V89.3842Z" fill="white"/>
<path d="M194.417 81.9388C194.417 85.0758 191.876 87.637 188.719 87.637C185.562 87.637 183.021 85.0758 183.021 81.9388V38.0606C183.021 34.9037 185.562 32.3425 188.719 32.3425C191.876 32.3425 194.417 34.9037 194.417 38.0606V81.9388Z" fill="white"/>
<path d="M214.768 101.357C214.768 104.494 212.207 107.055 209.07 107.055C205.913 107.055 203.352 104.494 203.352 101.357V18.6636C203.352 15.5068 205.913 12.9456 209.07 12.9456C212.227 12.9456 214.768 15.5068 214.768 18.6636V101.357Z" fill="white"/>
<path d="M235.396 81.7936C235.396 84.9306 232.855 87.4918 229.698 87.4918C226.541 87.4918 224 84.9306 224 81.7936V37.9153C224 34.7585 226.541 32.1973 229.698 32.1973C232.855 32.1973 235.396 34.7585 235.396 37.9153V81.7936Z" fill="white"/>
<path d="M256.197 114.302C256.197 117.439 253.655 120 250.498 120C247.341 120 244.8 117.439 244.8 114.302V5.71807C244.8 2.56122 247.341 0 250.498 0C253.655 0 256.197 2.56122 256.197 5.71807V114.302Z" fill="white"/>
<path d="M276.216 69.9668C276.216 73.1236 273.675 75.6848 270.518 75.6848C267.361 75.6848 264.8 73.1236 264.8 69.9668V50.0329C264.8 46.8761 267.361 44.3347 270.518 44.3347C273.675 44.3347 276.216 46.8761 276.216 50.0329V69.9668Z" fill="white"/>
<path d="M296.567 89.3842C296.567 92.5212 294.026 95.0825 290.869 95.0825C287.712 95.0825 285.171 92.5212 285.171 89.3842V30.6152C285.171 27.4584 287.712 24.917 290.869 24.917C294.026 24.917 296.567 27.4584 296.567 30.6152V89.3842Z" fill="white"/>
<path d="M316.918 76.4397C316.918 79.5766 314.376 82.1379 311.219 82.1379C308.063 82.1379 305.521 79.5766 305.521 76.4397V43.5608C305.521 40.4039 308.063 37.8625 311.219 37.8625C314.376 37.8625 316.918 40.4039 316.918 43.5608V76.4397Z" fill="white"/>
<path d="M337.269 114.302C337.269 117.439 334.727 120 331.57 120C328.414 120 325.872 117.439 325.872 114.302V5.71807C325.872 2.56122 328.414 0 331.57 0C334.727 0 337.269 2.56122 337.269 5.71807V114.302Z" fill="white"/>
<path d="M398.321 69.9863C398.321 73.1233 395.78 75.6845 392.623 75.6845C389.466 75.6845 386.924 73.1431 386.924 69.9863V50.0525C386.924 46.8956 389.466 44.3542 392.623 44.3542C395.78 44.3542 398.321 46.8956 398.321 50.0525V69.9863Z" fill="white"/>
<path d="M377.97 76.4397C377.97 79.5766 375.429 82.1379 372.272 82.1379C369.115 82.1379 366.573 79.5766 366.573 76.4397V43.5608C366.573 40.4039 369.115 37.8625 372.272 37.8625C375.429 37.8625 377.97 40.4039 377.97 43.5608V76.4397Z" fill="white"/>
<path d="M357.619 89.3842C357.619 92.5212 355.078 95.0825 351.921 95.0825C348.764 95.0825 346.223 92.5212 346.223 89.3842V30.6152C346.223 27.4584 348.764 24.917 351.921 24.917C355.078 24.917 357.619 27.4584 357.619 30.6152V89.3842Z" fill="white"/>
</svg>
